<svg xmlns="http://www.w3.org/2000/svg" width="300" height="300" viewBox="0 0 300 300"><rect width="100%" height="100%" fill="#DDDDDD"/><path fill="#999999" d="M103.01 150.035q0-2.33.86-4.43.87-2.09 2.37-3.59t3.6-2.41q2.1-.89 4.5-.89t4.46.89q2.06.91 3.6 2.41t2.44 3.59q.9 2.1.9 4.43 0 2.4-.9 4.46-.9 2.07-2.44 3.57t-3.6 2.36q-2.06.86-4.46.86t-4.5-.86q-2.1-.86-3.6-2.36t-2.37-3.57q-.86-2.06-.86-4.46Zm35.63 0q0-2.33.86-4.43.86-2.09 2.36-3.59t3.6-2.41q2.1-.89 4.5-.89t4.47.89q2.06.91 3.59 2.41 1.54 1.5 2.44 3.59.9 2.1.9 4.43 0 2.4-.9 4.46-.9 2.07-2.44 3.57-1.53 1.5-3.59 2.36-2.07.86-4.47.86t-4.5-.86q-2.1-.86-3.6-2.36t-2.36-3.57q-.86-2.06-.86-4.46Zm35.62 0q0-2.33.87-4.43.86-2.09 2.36-3.59t3.6-2.41q2.1-.89 4.5-.89t4.46.89q2.06.91 3.6 2.41t2.44 3.59q.9 2.1.9 4.43 0 2.4-.9 4.46-.9 2.07-2.44 3.57t-3.6 2.36q-2.06.86-4.46.86t-4.5-.86q-2.1-.86-3.6-2.36t-2.36-3.57q-.87-2.06-.87-4.46Z"/></svg>